<svg width="100" height="100" viewBox="0 0 100 100" xmlns="http://www.w3.org/2000/svg">
  <defs>
    <linearGradient id="cornGradient" x1="0%" y1="0%" x2="0%" y2="100%">
      <stop offset="0%" style="stop-color:#FFD700;stop-opacity:1" />
      <stop offset="100%" style="stop-color:#FFA500;stop-opacity:1" />
    </linearGradient>
    <linearGradient id="huskGradient" x1="0%" y1="0%" x2="0%" y2="100%">
      <stop offset="0%" style="stop-color:#9ACD32;stop-opacity:1" />
      <stop offset="100%" style="stop-color:#556B2F;stop-opacity:1" />
    </linearGradient>
  </defs>
  
  <!-- Husk Left -->
  <path d="M 40 90 C 10 70, 20 30, 45 10 L 50 15 C 30 35, 30 70, 40 90 Z" fill="url(#huskGradient)" />
  
  <!-- Husk Right -->
  <path d="M 60 90 C 90 70, 80 30, 55 10 L 50 15 C 70 35, 70 70, 60 90 Z" fill="url(#huskGradient)" />
  
  <!-- Corn Cob -->
  <ellipse cx="50" cy="50" rx="15" ry="35" fill="url(#cornGradient)" />

  <!-- Kernels -->
  <circle cx="45" cy="35" r="2" fill="#FFFFE0"/>
  <circle cx="55" cy="35" r="2" fill="#FFFFE0"/>
  <circle cx="50" cy="45" r="2" fill="#FFFFE0"/>
  <circle cx="45" cy="55" r="2" fill="#FFFFE0"/>
  <circle cx="55" cy="55" r="2" fill="#FFFFE0"/>
  <circle cx="50" cy="65" r="2" fill="#FFFFE0"/>
</svg>
